<svg xmlns="http://www.w3.org/2000/svg" width="26" height="26" fill="none" viewBox="0 0 26 26"><path stroke="#FFBE1A" stroke-linecap="round" stroke-linejoin="round" stroke-width="2" d="M10.9037 13.5341L4.20873 14.9619C3.94886 15.0183 3.67723 14.9701 3.4526 14.8278C3.22797 14.6855 3.0684 14.4605 3.0084 14.2014L2.42665 11.8722C2.35825 11.5916 2.39709 11.2956 2.53556 11.0421C2.67402 10.7886 2.90214 10.5959 3.17523 10.5018L17.8046 5.69183M14.69 12.7259L19.383 11.7249M17.3333 22.75L13.9696 16.0225"/><path stroke="#FFBE1A" stroke-linecap="round" stroke-linejoin="round" stroke-width="2" d="M6.67114 9.35243L7.87798 14.1798M8.66664 22.75L12.0304 16.0225M17.8587 6.43501C17.7195 5.87762 17.8073 5.28774 18.1029 4.79509C18.3985 4.30244 18.8776 3.94735 19.435 3.80793L20.6158 3.51326C20.8944 3.44378 21.1891 3.48769 21.4353 3.63537C21.6815 3.78304 21.859 4.02239 21.9288 4.30085L23.5701 10.8658C23.6399 11.1445 23.5961 11.4396 23.4484 11.686C23.3007 11.9324 23.0612 12.1101 22.7825 12.1799L21.6016 12.4746C21.0443 12.6139 20.4544 12.526 19.9617 12.2304C19.4691 11.9349 19.114 11.4557 18.9746 10.8983L17.8587 6.43501Z"/><path stroke="#FFBE1A" stroke-linecap="round" stroke-linejoin="round" stroke-width="2" d="M12.9999 16.25C14.1965 16.25 15.1666 15.28 15.1666 14.0834C15.1666 12.8867 14.1965 11.9167 12.9999 11.9167C11.8033 11.9167 10.8333 12.8867 10.8333 14.0834C10.8333 15.28 11.8033 16.25 12.9999 16.25Z"/></svg>