<svg width="251" height="38" viewBox="0 0 251 38" fill="none" xmlns="http://www.w3.org/2000/svg">
<path d="M12.032 30.448C10.3893 30.448 8.91733 30.224 7.616 29.776C6.336 29.3067 5.23733 28.624 4.32 27.728C3.424 26.8107 2.74133 25.68 2.272 24.336C1.80267 22.992 1.568 21.4347 1.568 19.664C1.568 17.872 1.80267 16.2827 2.272 14.896C2.76267 13.5093 3.456 12.336 4.352 11.376C5.26933 10.3947 6.34667 9.65867 7.584 9.168C8.82133 8.67733 10.1973 8.432 11.712 8.432C12.8853 8.432 13.9733 8.592 14.976 8.912C15.9787 9.21067 16.8427 9.648 17.568 10.224C18.2933 10.8 18.8587 11.504 19.264 12.336C19.6907 13.168 19.9147 14.1067 19.936 15.152L15.68 16.272C15.68 15.376 15.4773 14.6293 15.072 14.032C14.688 13.4347 14.176 12.9867 13.536 12.688C12.9173 12.368 12.256 12.208 11.552 12.208C10.9333 12.208 10.3147 12.336 9.696 12.592C9.09867 12.8267 8.544 13.232 8.032 13.808C7.54133 14.3627 7.136 15.0987 6.816 16.016C6.51733 16.9333 6.368 18.0533 6.368 19.376C6.368 21.104 6.61333 22.5013 7.104 23.568C7.616 24.6347 8.30933 25.424 9.184 25.936C10.0587 26.4267 11.04 26.672 12.128 26.672C13.3013 26.672 14.208 26.4373 14.848 25.968C15.5093 25.4773 15.9787 24.8587 16.256 24.112C16.5547 23.344 16.7147 22.5333 16.736 21.68L20.768 22.352C20.7467 23.4827 20.576 24.5493 20.256 25.552C19.936 26.5333 19.4347 27.3973 18.752 28.144C18.0693 28.8693 17.1733 29.4347 16.064 29.84C14.9547 30.2453 13.6107 30.448 12.032 30.448ZM24.502 30V19.44V7.12H29.142V12.368C29.142 12.7947 29.1207 13.2427 29.078 13.712C29.0567 14.1813 29.0033 14.6613 28.918 15.152C28.854 15.6213 28.7793 16.1013 28.694 16.592C28.63 17.0827 28.5553 17.5733 28.47 18.064H29.174C29.4727 16.976 29.846 16.0373 30.294 15.248C30.7633 14.4587 31.3607 13.8507 32.086 13.424C32.8113 12.976 33.7287 12.752 34.838 12.752C36.8007 12.752 38.2727 13.4453 39.254 14.832C40.2353 16.1973 40.726 18.2987 40.726 21.136V30H36.086V21.84C36.086 20.048 35.8193 18.7253 35.286 17.872C34.774 16.9973 33.9953 16.56 32.95 16.56C32.0967 16.56 31.3927 16.816 30.838 17.328C30.2833 17.84 29.8673 18.5333 29.59 19.408C29.3127 20.2613 29.1527 21.2213 29.11 22.288V30H24.502ZM45.3295 30V21.872V13.2H49.1375L49.1695 18.928H49.7775C49.9482 17.4987 50.2362 16.336 50.6415 15.44C51.0682 14.544 51.6548 13.8827 52.4015 13.456C53.1482 13.0293 54.0762 12.816 55.1855 12.816C55.3775 12.816 55.5802 12.8267 55.7935 12.848C56.0282 12.848 56.2948 12.88 56.5935 12.944L56.4015 17.84C56.0815 17.6907 55.7295 17.584 55.3455 17.52C54.9615 17.456 54.6202 17.424 54.3215 17.424C53.4895 17.424 52.7748 17.616 52.1775 18C51.5802 18.384 51.0895 18.9387 50.7055 19.664C50.3428 20.368 50.0975 21.232 49.9695 22.256V30H45.3295ZM67.398 30.448C65.7127 30.448 64.23 30.1173 62.95 29.456C61.67 28.7733 60.6673 27.7813 59.942 26.48C59.2167 25.1573 58.854 23.5147 58.854 21.552C58.854 19.5893 59.2167 17.9573 59.942 16.656C60.6887 15.3547 61.702 14.384 62.982 13.744C64.2833 13.0827 65.7553 12.752 67.398 12.752C69.0833 12.752 70.566 13.0827 71.846 13.744C73.1473 14.4053 74.1607 15.3973 74.886 16.72C75.6327 18.0213 76.006 19.6533 76.006 21.616C76.006 23.6 75.622 25.2533 74.854 26.576C74.1073 27.8773 73.0833 28.848 71.782 29.488C70.502 30.128 69.0407 30.448 67.398 30.448ZM67.558 27.024C68.39 27.024 69.0833 26.832 69.638 26.448C70.214 26.064 70.6407 25.488 70.918 24.72C71.2167 23.9307 71.366 22.9813 71.366 21.872C71.366 20.6987 71.206 19.7067 70.886 18.896C70.5873 18.064 70.1393 17.4347 69.542 17.008C68.9447 16.56 68.1873 16.336 67.27 16.336C66.4807 16.336 65.798 16.528 65.222 16.912C64.646 17.2747 64.2087 17.8507 63.91 18.64C63.6113 19.408 63.462 20.3573 63.462 21.488C63.462 23.3013 63.8247 24.6773 64.55 25.616C65.2753 26.5547 66.278 27.024 67.558 27.024ZM79.922 30V19.824V13.2H83.698L83.666 18.224H84.306C84.5833 17.008 84.978 15.9947 85.49 15.184C86.002 14.3733 86.642 13.7653 87.41 13.36C88.1993 12.9547 89.1273 12.752 90.194 12.752C92.1353 12.752 93.6073 13.4347 94.61 14.8C95.634 16.1653 96.146 18.3093 96.146 21.232V30H91.506V21.744C91.506 19.952 91.2393 18.6507 90.706 17.84C90.194 17.008 89.4367 16.592 88.434 16.592C87.5807 16.592 86.866 16.8587 86.29 17.392C85.714 17.9253 85.2767 18.6293 84.978 19.504C84.7007 20.3573 84.5513 21.3173 84.53 22.384V30H79.922ZM108.365 30.448C106.68 30.448 105.197 30.1173 103.917 29.456C102.637 28.7733 101.635 27.7813 100.909 26.48C100.184 25.1573 99.8215 23.5147 99.8215 21.552C99.8215 19.5893 100.184 17.9573 100.909 16.656C101.656 15.3547 102.669 14.384 103.949 13.744C105.251 13.0827 106.723 12.752 108.365 12.752C110.051 12.752 111.533 13.0827 112.813 13.744C114.115 14.4053 115.128 15.3973 115.853 16.72C116.6 18.0213 116.973 19.6533 116.973 21.616C116.973 23.6 116.589 25.2533 115.821 26.576C115.075 27.8773 114.051 28.848 112.749 29.488C111.469 30.128 110.008 30.448 108.365 30.448ZM108.525 27.024C109.357 27.024 110.051 26.832 110.605 26.448C111.181 26.064 111.608 25.488 111.885 24.72C112.184 23.9307 112.333 22.9813 112.333 21.872C112.333 20.6987 112.173 19.7067 111.853 18.896C111.555 18.064 111.107 17.4347 110.509 17.008C109.912 16.56 109.155 16.336 108.237 16.336C107.448 16.336 106.765 16.528 106.189 16.912C105.613 17.2747 105.176 17.8507 104.877 18.64C104.579 19.408 104.429 20.3573 104.429 21.488C104.429 23.3013 104.792 24.6773 105.517 25.616C106.243 26.5547 107.245 27.024 108.525 27.024ZM129.273 30.448C127.887 30.448 126.639 30.3093 125.529 30.032C124.441 29.776 123.503 29.3813 122.713 28.848C121.945 28.2933 121.337 27.6107 120.889 26.8C120.463 25.968 120.217 25.0187 120.153 23.952L124.185 22.64C124.228 23.6 124.463 24.4 124.889 25.04C125.337 25.68 125.967 26.1493 126.777 26.448C127.588 26.7467 128.495 26.896 129.497 26.896C130.457 26.896 131.268 26.7787 131.929 26.544C132.591 26.3093 133.092 26 133.433 25.616C133.775 25.2107 133.945 24.7733 133.945 24.304C133.945 23.7493 133.732 23.3013 133.305 22.96C132.879 22.6187 132.292 22.3307 131.545 22.096C130.82 21.8613 129.988 21.6373 129.049 21.424C128.004 21.1893 126.969 20.9227 125.945 20.624C124.943 20.3253 124.025 19.9413 123.193 19.472C122.383 19.0027 121.732 18.3947 121.241 17.648C120.772 16.9013 120.537 15.9627 120.537 14.832C120.537 13.5307 120.857 12.4107 121.497 11.472C122.159 10.512 123.119 9.76533 124.377 9.232C125.636 8.69867 127.151 8.432 128.921 8.432C130.713 8.432 132.239 8.69867 133.497 9.232C134.777 9.744 135.769 10.48 136.473 11.44C137.177 12.3787 137.561 13.4987 137.625 14.8L133.465 15.952C133.465 15.2907 133.359 14.7147 133.145 14.224C132.932 13.7333 132.633 13.328 132.249 13.008C131.865 12.6667 131.385 12.4107 130.809 12.24C130.255 12.0693 129.615 11.984 128.889 11.984C128.057 11.984 127.332 12.0907 126.713 12.304C126.116 12.5173 125.657 12.8053 125.337 13.168C125.039 13.5307 124.889 13.9573 124.889 14.448C124.889 15.024 125.124 15.504 125.593 15.888C126.084 16.2507 126.724 16.5493 127.513 16.784C128.324 17.0187 129.209 17.2427 130.169 17.456C131.087 17.648 132.015 17.8933 132.953 18.192C133.913 18.4693 134.799 18.8427 135.609 19.312C136.441 19.76 137.103 20.3787 137.593 21.168C138.105 21.936 138.361 22.9067 138.361 24.08C138.361 25.36 138.02 26.48 137.337 27.44C136.655 28.4 135.631 29.1467 134.265 29.68C132.921 30.192 131.257 30.448 129.273 30.448ZM150.18 30.448C148.73 30.448 147.46 30.2347 146.372 29.808C145.284 29.3813 144.378 28.784 143.652 28.016C142.927 27.248 142.383 26.3413 142.02 25.296C141.658 24.2293 141.476 23.0667 141.476 21.808C141.476 20.4853 141.658 19.28 142.02 18.192C142.404 17.0827 142.959 16.1227 143.684 15.312C144.41 14.5013 145.306 13.872 146.372 13.424C147.439 12.976 148.655 12.752 150.02 12.752C151.386 12.752 152.57 12.976 153.572 13.424C154.596 13.872 155.418 14.5013 156.036 15.312C156.676 16.1013 157.114 17.04 157.348 18.128L153.092 19.504C153.028 18.8427 152.847 18.2773 152.548 17.808C152.271 17.3173 151.887 16.9547 151.396 16.72C150.927 16.464 150.394 16.336 149.796 16.336C149.178 16.336 148.644 16.464 148.196 16.72C147.748 16.9547 147.364 17.3067 147.044 17.776C146.746 18.224 146.511 18.7787 146.34 19.44C146.191 20.08 146.116 20.8053 146.116 21.616C146.116 22.768 146.266 23.7493 146.564 24.56C146.884 25.3493 147.343 25.9573 147.94 26.384C148.559 26.7893 149.316 26.992 150.212 26.992C151.066 26.992 151.748 26.832 152.26 26.512C152.772 26.1707 153.146 25.744 153.38 25.232C153.636 24.6987 153.796 24.1547 153.86 23.6L157.892 24.496C157.786 25.328 157.551 26.1067 157.188 26.832C156.847 27.5573 156.356 28.1867 155.716 28.72C155.076 29.2533 154.298 29.68 153.38 30C152.484 30.2987 151.418 30.448 150.18 30.448ZM161.169 30V21.872V13.2H164.977L165.009 18.928H165.617C165.788 17.4987 166.076 16.336 166.481 15.44C166.908 14.544 167.495 13.8827 168.241 13.456C168.988 13.0293 169.916 12.816 171.025 12.816C171.217 12.816 171.42 12.8267 171.633 12.848C171.868 12.848 172.135 12.88 172.433 12.944L172.241 17.84C171.921 17.6907 171.569 17.584 171.185 17.52C170.801 17.456 170.46 17.424 170.161 17.424C169.329 17.424 168.615 17.616 168.017 18C167.42 18.384 166.929 18.9387 166.545 19.664C166.183 20.368 165.937 21.232 165.809 22.256V30H161.169ZM175.684 30V13.2H180.292V30H175.684ZM178.02 10.672C177.124 10.672 176.431 10.4907 175.94 10.128C175.471 9.744 175.236 9.18933 175.236 8.464C175.236 7.71733 175.471 7.152 175.94 6.768C176.431 6.384 177.124 6.192 178.02 6.192C178.938 6.192 179.631 6.384 180.1 6.768C180.591 7.152 180.836 7.71733 180.836 8.464C180.836 9.168 180.591 9.712 180.1 10.096C179.631 10.48 178.938 10.672 178.02 10.672ZM195.375 30.448C194.309 30.448 193.381 30.2453 192.591 29.84C191.802 29.4133 191.162 28.8053 190.671 28.016C190.181 27.2267 189.839 26.2667 189.647 25.136H189.039L189.007 30H185.199V21.744V7.12H189.807V12.624C189.807 13.136 189.775 13.6907 189.711 14.288C189.647 14.864 189.551 15.4613 189.423 16.08C189.317 16.6987 189.199 17.3387 189.071 18H189.775C190.053 16.9333 190.426 16.016 190.895 15.248C191.386 14.4587 192.005 13.8613 192.751 13.456C193.498 13.0293 194.383 12.816 195.407 12.816C196.815 12.816 198.031 13.1787 199.055 13.904C200.079 14.6293 200.869 15.6533 201.423 16.976C201.999 18.2987 202.287 19.8667 202.287 21.68C202.287 23.4507 202.01 24.9973 201.455 26.32C200.901 27.6213 200.101 28.6347 199.055 29.36C198.031 30.0853 196.805 30.448 195.375 30.448ZM193.743 26.672C194.511 26.672 195.173 26.4693 195.727 26.064C196.282 25.6373 196.709 25.04 197.007 24.272C197.306 23.504 197.455 22.608 197.455 21.584C197.455 20.56 197.306 19.6747 197.007 18.928C196.73 18.1813 196.325 17.5947 195.791 17.168C195.258 16.7413 194.607 16.528 193.839 16.528C193.327 16.528 192.858 16.624 192.431 16.816C192.005 17.008 191.631 17.2747 191.311 17.616C190.991 17.936 190.714 18.3093 190.479 18.736C190.245 19.1413 190.074 19.568 189.967 20.016C189.861 20.464 189.807 20.8907 189.807 21.296V21.904C189.807 22.3947 189.882 22.928 190.031 23.504C190.181 24.0587 190.415 24.5813 190.735 25.072C191.077 25.5413 191.493 25.9253 191.983 26.224C192.474 26.5227 193.061 26.672 193.743 26.672ZM214.054 30.448C212.667 30.448 211.43 30.256 210.342 29.872C209.275 29.488 208.368 28.9333 207.622 28.208C206.875 27.4827 206.299 26.5867 205.894 25.52C205.51 24.4533 205.318 23.248 205.318 21.904C205.318 20.5813 205.499 19.3653 205.862 18.256C206.246 17.1253 206.8 16.1547 207.526 15.344C208.251 14.512 209.136 13.872 210.182 13.424C211.227 12.976 212.411 12.752 213.734 12.752C215.014 12.752 216.155 12.9653 217.158 13.392C218.16 13.7973 218.992 14.416 219.654 15.248C220.336 16.08 220.827 17.104 221.126 18.32C221.446 19.5147 221.563 20.8907 221.478 22.448L208.294 22.576V20.048L218.822 19.952L217.19 21.232C217.339 20.1013 217.264 19.1733 216.966 18.448C216.667 17.7227 216.23 17.1893 215.654 16.848C215.099 16.5067 214.48 16.336 213.798 16.336C212.987 16.336 212.272 16.5493 211.654 16.976C211.035 17.4027 210.555 18.032 210.214 18.864C209.872 19.6747 209.702 20.656 209.702 21.808C209.702 23.6213 210.096 24.9547 210.886 25.808C211.696 26.6613 212.752 27.088 214.054 27.088C214.651 27.088 215.152 27.0133 215.558 26.864C215.984 26.6933 216.326 26.48 216.582 26.224C216.859 25.968 217.072 25.68 217.222 25.36C217.392 25.04 217.531 24.72 217.638 24.4L221.638 25.264C221.446 26.0533 221.158 26.768 220.774 27.408C220.411 28.0267 219.92 28.5707 219.302 29.04C218.683 29.488 217.936 29.8293 217.062 30.064C216.208 30.32 215.206 30.448 214.054 30.448Z" fill="#FAFAFA"/>
<path d="M235.904 19.5341L229.209 20.9619C228.949 21.0183 228.677 20.9701 228.453 20.8278C228.228 20.6855 228.068 20.4605 228.008 20.2014L227.427 17.8722C227.358 17.5916 227.397 17.2956 227.536 17.0421C227.674 16.7886 227.902 16.5959 228.175 16.5018L242.805 11.6918M239.69 18.7259L244.383 17.7249M242.333 28.75L238.97 22.0225" stroke="#FFBE1A" stroke-width="2" stroke-linecap="round" stroke-linejoin="round"/>
<path d="M231.671 15.3524L232.878 20.1798M233.667 28.75L237.03 22.0225M242.859 12.435C242.719 11.8776 242.807 11.2877 243.103 10.7951C243.398 10.3024 243.878 9.94735 244.435 9.80793L245.616 9.51326C245.894 9.44378 246.189 9.48769 246.435 9.63537C246.681 9.78304 246.859 10.0224 246.929 10.3008L248.57 16.8658C248.64 17.1445 248.596 17.4396 248.448 17.686C248.301 17.9324 248.061 18.1101 247.783 18.1799L246.602 18.4746C246.044 18.6139 245.454 18.526 244.962 18.2304C244.469 17.9349 244.114 17.4557 243.975 16.8983L242.859 12.435Z" stroke="#FFBE1A" stroke-width="2" stroke-linecap="round" stroke-linejoin="round"/>
<path d="M238 22.25C239.197 22.25 240.167 21.28 240.167 20.0834C240.167 18.8867 239.197 17.9167 238 17.9167C236.803 17.9167 235.833 18.8867 235.833 20.0834C235.833 21.28 236.803 22.25 238 22.25Z" stroke="#FFBE1A" stroke-width="2" stroke-linecap="round" stroke-linejoin="round"/>
</svg>
